<svg xmlns="http://www.w3.org/2000/svg" width="51.376" height="38.532" viewBox="0 0 51.376 38.532">
  <g id="noun-chevron-2701066" transform="translate(-140 -122.5)">
    <path id="Path_7327" data-name="Path 7327" d="M231.032,124.641a2.022,2.022,0,0,0-2.141-2.141,1.943,1.943,0,0,0-1.5.642l-15.627,15.627-15.627-15.627a2.119,2.119,0,0,0-3,3l17.125,17.125a2.069,2.069,0,0,0,3,0l17.125-17.125A1.943,1.943,0,0,0,231.032,124.641Z" transform="translate(-46.078 0)" fill="#047a90"/>
    <path id="Path_7328" data-name="Path 7328" d="M191.376,212.141A2.022,2.022,0,0,0,189.236,210a1.943,1.943,0,0,0-1.5.642l-22.049,22.049-22.049-22.049a2.119,2.119,0,0,0-3,3l23.547,23.547a2.069,2.069,0,0,0,3,0l23.547-23.547A1.943,1.943,0,0,0,191.376,212.141Z" transform="translate(0 -76.797)" fill="#047a90"/>
  </g>
</svg>
