<svg width="305" height="117" viewBox="0 0 305 117" fill="none" xmlns="http://www.w3.org/2000/svg">
<g filter="url(#filter0_ddddd_0_1)">
<path d="M77.1895 83.9399V28.4399C75.6895 24.9398 71.1895 23.9399 68.6895 28.4399V83.9399C70.6895 87.9399 75.1895 87.9398 77.1895 83.9399Z" stroke="#CBFAF5" stroke-width="2" shape-rendering="crispEdges"/>
</g>
<g filter="url(#filter1_ddddd_0_1)">
<path d="M29.1891 59.4399C11.1891 59.4399 5.18912 47.4399 7.6891 40.4399C10.0103 27.6732 29.3935 19.3966 45.6891 25.8006C50.4544 27.6733 54.9557 30.8015 58.6891 35.4399C59.6891 42.4399 57.6891 41.4399 53.1891 41.4399C43.1891 27.9399 22.1891 30.9399 16.6891 40.4399C11.1891 49.9399 26.5891 51.1399 38.1891 51.9399C43.6891 51.9399 67.1891 54.4399 59.6891 77.4399C49.6891 87.9399 24.1891 92.9399 9.68913 79.4399C5.68911 76.9399 2.68913 67.4399 13.1891 68.9399C13.1891 75.4399 23.6891 81.7157 40.1891 79.4399C54.6891 77.4399 56.6891 62.9399 44.6891 60.9399L29.1891 59.4399Z" stroke="#CBFAF5" stroke-width="2" shape-rendering="crispEdges"/>
</g>
<g filter="url(#filter2_ddddd_0_1)">
<ellipse cx="72.6895" cy="13.9395" rx="6" ry="7.5" stroke="#CBFAF5" stroke-width="2" shape-rendering="crispEdges"/>
</g>
<g filter="url(#filter3_ddddd_0_1)">
<path d="M88.1903 41.9396L89.1076 42.3377L89.116 42.3183L89.1236 42.2986L88.1903 41.9396ZM135.19 33.4396L134.457 34.1201L136.966 36.8218L136.166 33.2227L135.19 33.4396ZM118.19 87.9396V86.9396H118.158L118.127 86.9416L118.19 87.9396ZM135.19 76.9396H136.19V74.0251L134.401 76.3257L135.19 76.9396ZM95.1903 94.9396L95.8411 94.1803L95.7249 94.0807L95.5842 94.0205L95.1903 94.9396ZM93.1903 103.44L93.7399 102.604L93.6805 102.565L93.6161 102.535L93.1903 103.44ZM143.19 85.9396L144.188 85.9995L144.19 85.9743L144.19 85.949L143.19 85.9396ZM143.69 32.9396L144.69 32.949L144.69 32.9235L144.689 32.898L143.69 32.9396ZM89.1236 42.2986C92.7258 32.9329 100.891 27.5062 109.782 26.1151C118.689 24.7215 128.215 27.3971 134.457 34.1201L135.923 32.7592C129.166 25.4822 118.942 22.6577 109.473 24.1391C99.9892 25.623 91.1547 31.4463 87.2569 41.5806L89.1236 42.2986ZM118.127 86.9416C106.692 87.6715 96.6609 82.9289 90.8782 74.8572C85.1082 66.8033 83.4793 55.3072 89.1076 42.3377L87.2729 41.5415C81.4012 55.072 83.0223 67.3259 89.2524 76.022C95.4697 84.7003 106.189 89.7077 118.254 88.9376L118.127 86.9416ZM134.401 76.3257C132.672 78.5487 130.359 81.2205 127.585 83.3313C124.81 85.4429 121.644 86.9396 118.19 86.9396V88.9396C122.237 88.9396 125.821 87.1863 128.796 84.9229C131.772 82.6587 134.209 79.8305 135.98 77.5535L134.401 76.3257ZM136.19 85.9396V76.9396H134.19V85.9396H136.19ZM94.5395 95.6989C101.819 101.939 112.156 103.596 120.655 101.729C129.116 99.8699 136.19 94.3728 136.19 85.9396H134.19C134.19 93.0065 128.264 98.0093 120.226 99.7754C112.225 101.533 102.561 99.9404 95.8411 94.1803L94.5395 95.6989ZM93.6161 102.535C89.5534 100.623 88.8846 98.1664 89.3235 96.8897C89.7423 95.6713 91.5754 94.4783 94.7964 95.8588L95.5842 94.0205C91.8052 92.4009 88.3883 93.4579 87.4321 96.2395C86.496 98.9628 88.3272 102.256 92.7645 104.344L93.6161 102.535ZM142.192 85.8797C141.471 97.8994 134.065 105.077 124.48 107.79C114.836 110.519 103.01 108.703 93.7399 102.604L92.6407 104.275C102.371 110.676 114.794 112.61 125.025 109.714C135.315 106.802 143.41 98.9798 144.188 85.9995L142.192 85.8797ZM142.69 32.9302L142.19 85.9302L144.19 85.949L144.69 32.949L142.69 32.9302ZM136.166 33.2227C135.231 29.0125 137.165 26.6269 138.714 26.292C139.458 26.1313 140.322 26.3568 141.09 27.3149C141.884 28.3068 142.571 30.1006 142.691 32.9812L144.689 32.898C144.559 29.7786 143.809 27.51 142.65 26.0643C141.465 24.5849 139.86 23.9979 138.291 24.3372C135.215 25.0023 133.15 28.8667 134.214 33.6566L136.166 33.2227ZM134.69 55.4396C134.69 68.2484 125.412 78.4396 114.19 78.4396V80.4396C126.717 80.4396 136.69 69.1404 136.69 55.4396H134.69ZM114.19 32.4396C125.412 32.4396 134.69 42.6308 134.69 55.4396H136.69C136.69 41.7388 126.717 30.4396 114.19 30.4396V32.4396ZM93.6903 55.4396C93.6903 42.6308 102.969 32.4396 114.19 32.4396V30.4396C101.663 30.4396 91.6903 41.7388 91.6903 55.4396H93.6903ZM114.19 78.4396C102.969 78.4396 93.6903 68.2484 93.6903 55.4396H91.6903C91.6903 69.1404 101.663 80.4396 114.19 80.4396V78.4396Z" fill="#CBFAF5"/>
</g>
<g filter="url(#filter4_ddddd_0_1)">
<path d="M151.189 27.9398V84.4398C153.689 87.9398 156.689 89.4398 159.689 83.4398V49.9398C169.189 25.9398 196.189 27.9398 201.689 49.9398V84.4398C204.189 88.9398 208.189 88.4398 209.689 83.4398V49.9398C205.858 24.1639 184.798 20.7125 171.189 26.0619C165.264 28.3913 160.751 32.3895 159.689 36.9398L159.189 38.4398V39.9398V26.9398C154.189 23.9398 152.689 24.9398 151.189 27.9398Z" stroke="#CBFAF5" stroke-width="2" shape-rendering="crispEdges"/>
</g>
<g filter="url(#filter5_ddddd_0_1)">
<path d="M217.189 83.9398L216.262 83.5658L216.189 83.7458V83.9398H217.189ZM241.189 24.4398L240.389 23.8398L240.311 23.9445L240.262 24.0658L241.189 24.4398ZM227.689 96.9398L227.465 97.9142L227.576 97.9398H227.689V96.9398ZM274.689 96.9398V97.9398H274.895L275.083 97.859L274.689 96.9398ZM281.689 80.9398L282.662 80.7082L282.645 80.6337L282.616 80.5628L281.689 80.9398ZM260.928 29.9398L261.855 29.5628L261.855 29.5628L260.928 29.9398ZM258.689 24.4398L259.616 24.0628L259.573 23.9586L259.509 23.8664L258.689 24.4398ZM264.189 50.4398L265.084 50.8871L265.291 50.4736L265.11 50.0483L264.189 50.4398ZM228.189 70.4398L227.258 70.0758L226.725 71.4398H228.189V70.4398ZM254.189 26.9398L255.11 26.5483L255.023 26.3446L254.858 26.1965L254.189 26.9398ZM246.747 26.2062L247.302 27.0387L247.302 27.0387L246.747 26.2062ZM245.189 26.9398V25.9398H244.507L244.258 26.5758L245.189 26.9398ZM218.117 84.3139L242.117 24.8139L240.262 24.0658L216.262 83.5658L218.117 84.3139ZM227.914 95.9654C224.775 95.2409 222.375 94.063 220.753 92.2172C219.143 90.3856 218.189 87.7701 218.189 83.9398H216.189C216.189 88.1096 217.235 91.2441 219.251 93.5374C221.254 95.8167 224.104 97.1388 227.465 97.9142L227.914 95.9654ZM274.689 95.9398H227.689V97.9398H274.689V95.9398ZM280.717 81.1715C281.959 86.3906 281.874 89.326 280.862 91.2955C279.855 93.2569 277.804 94.517 274.296 96.0207L275.083 97.859C278.575 96.3627 281.274 94.8727 282.642 92.2091C284.005 89.5537 283.92 85.9891 282.662 80.7082L280.717 81.1715ZM260.002 30.3169L280.763 81.3169L282.616 80.5628L261.855 29.5628L260.002 30.3169ZM257.763 24.8169L260.002 30.3169L261.855 29.5628L259.616 24.0628L257.763 24.8169ZM241.989 25.0398C243.429 23.12 245.876 20.8334 248.673 20.1622C250.04 19.8341 251.499 19.8883 253.013 20.5704C254.541 21.2584 256.193 22.6169 257.87 25.0133L259.509 23.8664C257.686 21.2628 255.776 19.6213 253.835 18.7468C251.88 17.8664 249.964 17.7956 248.206 18.2174C244.752 19.0463 241.95 21.7597 240.389 23.8398L241.989 25.0398ZM263.295 49.9926C260.918 54.7463 255.605 59.6214 249.072 63.3196C242.553 67.0093 234.973 69.4398 228.189 69.4398V71.4398C235.406 71.4398 243.326 68.8703 250.057 65.0601C256.774 61.2583 262.461 56.1334 265.084 50.8871L263.295 49.9926ZM253.269 27.3314L263.269 50.8314L265.11 50.0483L255.11 26.5483L253.269 27.3314ZM247.302 27.0387C248.117 26.4956 248.865 26.0191 249.778 25.9486C250.632 25.8825 251.838 26.1688 253.52 27.6831L254.858 26.1965C252.908 24.4416 251.186 23.8337 249.623 23.9545C248.119 24.0708 246.962 24.8622 246.193 25.3738L247.302 27.0387ZM245.189 27.9398C245.654 27.9398 246.064 27.7717 246.376 27.6096C246.692 27.4457 247.016 27.2286 247.302 27.0387L246.193 25.3738C245.882 25.5808 245.655 25.7306 245.455 25.8342C245.252 25.9397 245.181 25.9398 245.189 25.9398V27.9398ZM229.121 70.8038L246.121 27.3038L244.258 26.5758L227.258 70.0758L229.121 70.8038Z" fill="#CBFAF5"/>
</g>
<g filter="url(#filter6_ddddd_0_1)">
<path d="M298.189 83.9397V9.93973C296.189 4.43973 291.189 4.93973 289.189 9.93973V83.9397C291.689 88.9397 295.189 89.4397 298.189 83.9397Z" stroke="#CBFAF5" stroke-width="2" shape-rendering="crispEdges"/>
</g>
<defs>
<filter id="filter0_ddddd_0_1" x="62.6895" y="19.4282" width="20.5" height="73.5117" filterUnits="userSpaceOnUse" color-interpolation-filters="sRGB">
<feFlood flood-opacity="0" result="BackgroundImageFix"/>
<feColorMatrix in="SourceAlpha" type="matrix" values="0 0 0 0 0 0 0 0 0 0 0 0 0 0 0 0 0 0 127 0" result="hardAlpha"/>
<feOffset/>
<feGaussianBlur stdDeviation="2.5"/>
<feComposite in2="hardAlpha" operator="out"/>
<feColorMatrix type="matrix" values="0 0 0 0 0.796078 0 0 0 0 0.980392 0 0 0 0 0.960784 0 0 0 1 0"/>
<feBlend mode="normal" in2="BackgroundImageFix" result="effect1_dropShadow_0_1"/>
<feColorMatrix in="SourceAlpha" type="matrix" values="0 0 0 0 0 0 0 0 0 0 0 0 0 0 0 0 0 0 127 0" result="hardAlpha"/>
<feOffset/>
<feGaussianBlur stdDeviation="2.5"/>
<feComposite in2="hardAlpha" operator="out"/>
<feColorMatrix type="matrix" values="0 0 0 0 0.796078 0 0 0 0 0.980392 0 0 0 0 0.960784 0 0 0 1 0"/>
<feBlend mode="normal" in2="effect1_dropShadow_0_1" result="effect2_dropShadow_0_1"/>
<feColorMatrix in="SourceAlpha" type="matrix" values="0 0 0 0 0 0 0 0 0 0 0 0 0 0 0 0 0 0 127 0" result="hardAlpha"/>
<feOffset/>
<feGaussianBlur stdDeviation="2.5"/>
<feComposite in2="hardAlpha" operator="out"/>
<feColorMatrix type="matrix" values="0 0 0 0 0.796078 0 0 0 0 0.980392 0 0 0 0 0.960784 0 0 0 1 0"/>
<feBlend mode="normal" in2="effect2_dropShadow_0_1" result="effect3_dropShadow_0_1"/>
<feColorMatrix in="SourceAlpha" type="matrix" values="0 0 0 0 0 0 0 0 0 0 0 0 0 0 0 0 0 0 127 0" result="hardAlpha"/>
<feOffset/>
<feGaussianBlur stdDeviation="2.5"/>
<feComposite in2="hardAlpha" operator="out"/>
<feColorMatrix type="matrix" values="0 0 0 0 0.796078 0 0 0 0 0.980392 0 0 0 0 0.960784 0 0 0 1 0"/>
<feBlend mode="normal" in2="effect3_dropShadow_0_1" result="effect4_dropShadow_0_1"/>
<feColorMatrix in="SourceAlpha" type="matrix" values="0 0 0 0 0 0 0 0 0 0 0 0 0 0 0 0 0 0 127 0" result="hardAlpha"/>
<feOffset/>
<feGaussianBlur stdDeviation="2.5"/>
<feComposite in2="hardAlpha" operator="out"/>
<feColorMatrix type="matrix" values="0 0 0 0 0.796078 0 0 0 0 0.980392 0 0 0 0 0.960784 0 0 0 1 0"/>
<feBlend mode="normal" in2="effect4_dropShadow_0_1" result="effect5_dropShadow_0_1"/>
<feBlend mode="normal" in="SourceGraphic" in2="effect5_dropShadow_0_1" result="shape"/>
</filter>
<filter id="filter1_ddddd_0_1" x="0" y="17.5854" width="67.1523" height="76.041" filterUnits="userSpaceOnUse" color-interpolation-filters="sRGB">
<feFlood flood-opacity="0" result="BackgroundImageFix"/>
<feColorMatrix in="SourceAlpha" type="matrix" values="0 0 0 0 0 0 0 0 0 0 0 0 0 0 0 0 0 0 127 0" result="hardAlpha"/>
<feOffset/>
<feGaussianBlur stdDeviation="2.5"/>
<feComposite in2="hardAlpha" operator="out"/>
<feColorMatrix type="matrix" values="0 0 0 0 0.796078 0 0 0 0 0.980392 0 0 0 0 0.960784 0 0 0 1 0"/>
<feBlend mode="normal" in2="BackgroundImageFix" result="effect1_dropShadow_0_1"/>
<feColorMatrix in="SourceAlpha" type="matrix" values="0 0 0 0 0 0 0 0 0 0 0 0 0 0 0 0 0 0 127 0" result="hardAlpha"/>
<feOffset/>
<feGaussianBlur stdDeviation="2.5"/>
<feComposite in2="hardAlpha" operator="out"/>
<feColorMatrix type="matrix" values="0 0 0 0 0.796078 0 0 0 0 0.980392 0 0 0 0 0.960784 0 0 0 1 0"/>
<feBlend mode="normal" in2="effect1_dropShadow_0_1" result="effect2_dropShadow_0_1"/>
<feColorMatrix in="SourceAlpha" type="matrix" values="0 0 0 0 0 0 0 0 0 0 0 0 0 0 0 0 0 0 127 0" result="hardAlpha"/>
<feOffset/>
<feGaussianBlur stdDeviation="2.5"/>
<feComposite in2="hardAlpha" operator="out"/>
<feColorMatrix type="matrix" values="0 0 0 0 0.796078 0 0 0 0 0.980392 0 0 0 0 0.960784 0 0 0 1 0"/>
<feBlend mode="normal" in2="effect2_dropShadow_0_1" result="effect3_dropShadow_0_1"/>
<feColorMatrix in="SourceAlpha" type="matrix" values="0 0 0 0 0 0 0 0 0 0 0 0 0 0 0 0 0 0 127 0" result="hardAlpha"/>
<feOffset/>
<feGaussianBlur stdDeviation="2.5"/>
<feComposite in2="hardAlpha" operator="out"/>
<feColorMatrix type="matrix" values="0 0 0 0 0.796078 0 0 0 0 0.980392 0 0 0 0 0.960784 0 0 0 1 0"/>
<feBlend mode="normal" in2="effect3_dropShadow_0_1" result="effect4_dropShadow_0_1"/>
<feColorMatrix in="SourceAlpha" type="matrix" values="0 0 0 0 0 0 0 0 0 0 0 0 0 0 0 0 0 0 127 0" result="hardAlpha"/>
<feOffset/>
<feGaussianBlur stdDeviation="2.5"/>
<feComposite in2="hardAlpha" operator="out"/>
<feColorMatrix type="matrix" values="0 0 0 0 0.796078 0 0 0 0 0.980392 0 0 0 0 0.960784 0 0 0 1 0"/>
<feBlend mode="normal" in2="effect4_dropShadow_0_1" result="effect5_dropShadow_0_1"/>
<feBlend mode="normal" in="SourceGraphic" in2="effect5_dropShadow_0_1" result="shape"/>
</filter>
<filter id="filter2_ddddd_0_1" x="60.6895" y="0.439453" width="24" height="27" filterUnits="userSpaceOnUse" color-interpolation-filters="sRGB">
<feFlood flood-opacity="0" result="BackgroundImageFix"/>
<feColorMatrix in="SourceAlpha" type="matrix" values="0 0 0 0 0 0 0 0 0 0 0 0 0 0 0 0 0 0 127 0" result="hardAlpha"/>
<feOffset/>
<feGaussianBlur stdDeviation="2.5"/>
<feComposite in2="hardAlpha" operator="out"/>
<feColorMatrix type="matrix" values="0 0 0 0 0.796078 0 0 0 0 0.980392 0 0 0 0 0.960784 0 0 0 1 0"/>
<feBlend mode="normal" in2="BackgroundImageFix" result="effect1_dropShadow_0_1"/>
<feColorMatrix in="SourceAlpha" type="matrix" values="0 0 0 0 0 0 0 0 0 0 0 0 0 0 0 0 0 0 127 0" result="hardAlpha"/>
<feOffset/>
<feGaussianBlur stdDeviation="2.5"/>
<feComposite in2="hardAlpha" operator="out"/>
<feColorMatrix type="matrix" values="0 0 0 0 0.796078 0 0 0 0 0.980392 0 0 0 0 0.960784 0 0 0 1 0"/>
<feBlend mode="normal" in2="effect1_dropShadow_0_1" result="effect2_dropShadow_0_1"/>
<feColorMatrix in="SourceAlpha" type="matrix" values="0 0 0 0 0 0 0 0 0 0 0 0 0 0 0 0 0 0 127 0" result="hardAlpha"/>
<feOffset/>
<feGaussianBlur stdDeviation="2.5"/>
<feComposite in2="hardAlpha" operator="out"/>
<feColorMatrix type="matrix" values="0 0 0 0 0.796078 0 0 0 0 0.980392 0 0 0 0 0.960784 0 0 0 1 0"/>
<feBlend mode="normal" in2="effect2_dropShadow_0_1" result="effect3_dropShadow_0_1"/>
<feColorMatrix in="SourceAlpha" type="matrix" values="0 0 0 0 0 0 0 0 0 0 0 0 0 0 0 0 0 0 127 0" result="hardAlpha"/>
<feOffset/>
<feGaussianBlur stdDeviation="2.5"/>
<feComposite in2="hardAlpha" operator="out"/>
<feColorMatrix type="matrix" values="0 0 0 0 0.796078 0 0 0 0 0.980392 0 0 0 0 0.960784 0 0 0 1 0"/>
<feBlend mode="normal" in2="effect3_dropShadow_0_1" result="effect4_dropShadow_0_1"/>
<feColorMatrix in="SourceAlpha" type="matrix" values="0 0 0 0 0 0 0 0 0 0 0 0 0 0 0 0 0 0 127 0" result="hardAlpha"/>
<feOffset/>
<feGaussianBlur stdDeviation="2.5"/>
<feComposite in2="hardAlpha" operator="out"/>
<feColorMatrix type="matrix" values="0 0 0 0 0.796078 0 0 0 0 0.980392 0 0 0 0 0.960784 0 0 0 1 0"/>
<feBlend mode="normal" in2="effect4_dropShadow_0_1" result="effect5_dropShadow_0_1"/>
<feBlend mode="normal" in="SourceGraphic" in2="effect5_dropShadow_0_1" result="shape"/>
</filter>
<filter id="filter3_ddddd_0_1" x="78.625" y="18.7578" width="71.0664" height="97.2686" filterUnits="userSpaceOnUse" color-interpolation-filters="sRGB">
<feFlood flood-opacity="0" result="BackgroundImageFix"/>
<feColorMatrix in="SourceAlpha" type="matrix" values="0 0 0 0 0 0 0 0 0 0 0 0 0 0 0 0 0 0 127 0" result="hardAlpha"/>
<feOffset/>
<feGaussianBlur stdDeviation="2.5"/>
<feComposite in2="hardAlpha" operator="out"/>
<feColorMatrix type="matrix" values="0 0 0 0 0.796078 0 0 0 0 0.980392 0 0 0 0 0.960784 0 0 0 1 0"/>
<feBlend mode="normal" in2="BackgroundImageFix" result="effect1_dropShadow_0_1"/>
<feColorMatrix in="SourceAlpha" type="matrix" values="0 0 0 0 0 0 0 0 0 0 0 0 0 0 0 0 0 0 127 0" result="hardAlpha"/>
<feOffset/>
<feGaussianBlur stdDeviation="2.5"/>
<feComposite in2="hardAlpha" operator="out"/>
<feColorMatrix type="matrix" values="0 0 0 0 0.796078 0 0 0 0 0.980392 0 0 0 0 0.960784 0 0 0 1 0"/>
<feBlend mode="normal" in2="effect1_dropShadow_0_1" result="effect2_dropShadow_0_1"/>
<feColorMatrix in="SourceAlpha" type="matrix" values="0 0 0 0 0 0 0 0 0 0 0 0 0 0 0 0 0 0 127 0" result="hardAlpha"/>
<feOffset/>
<feGaussianBlur stdDeviation="2.5"/>
<feComposite in2="hardAlpha" operator="out"/>
<feColorMatrix type="matrix" values="0 0 0 0 0.796078 0 0 0 0 0.980392 0 0 0 0 0.960784 0 0 0 1 0"/>
<feBlend mode="normal" in2="effect2_dropShadow_0_1" result="effect3_dropShadow_0_1"/>
<feColorMatrix in="SourceAlpha" type="matrix" values="0 0 0 0 0 0 0 0 0 0 0 0 0 0 0 0 0 0 127 0" result="hardAlpha"/>
<feOffset/>
<feGaussianBlur stdDeviation="2.5"/>
<feComposite in2="hardAlpha" operator="out"/>
<feColorMatrix type="matrix" values="0 0 0 0 0.796078 0 0 0 0 0.980392 0 0 0 0 0.960784 0 0 0 1 0"/>
<feBlend mode="normal" in2="effect3_dropShadow_0_1" result="effect4_dropShadow_0_1"/>
<feColorMatrix in="SourceAlpha" type="matrix" values="0 0 0 0 0 0 0 0 0 0 0 0 0 0 0 0 0 0 127 0" result="hardAlpha"/>
<feOffset/>
<feGaussianBlur stdDeviation="2.5"/>
<feComposite in2="hardAlpha" operator="out"/>
<feColorMatrix type="matrix" values="0 0 0 0 0.796078 0 0 0 0 0.980392 0 0 0 0 0.960784 0 0 0 1 0"/>
<feBlend mode="normal" in2="effect4_dropShadow_0_1" result="effect5_dropShadow_0_1"/>
<feBlend mode="normal" in="SourceGraphic" in2="effect5_dropShadow_0_1" result="shape"/>
</filter>
<filter id="filter4_ddddd_0_1" x="145.189" y="17.9106" width="70.5" height="75.6147" filterUnits="userSpaceOnUse" color-interpolation-filters="sRGB">
<feFlood flood-opacity="0" result="BackgroundImageFix"/>
<feColorMatrix in="SourceAlpha" type="matrix" values="0 0 0 0 0 0 0 0 0 0 0 0 0 0 0 0 0 0 127 0" result="hardAlpha"/>
<feOffset/>
<feGaussianBlur stdDeviation="2.5"/>
<feComposite in2="hardAlpha" operator="out"/>
<feColorMatrix type="matrix" values="0 0 0 0 0.796078 0 0 0 0 0.980392 0 0 0 0 0.960784 0 0 0 1 0"/>
<feBlend mode="normal" in2="BackgroundImageFix" result="effect1_dropShadow_0_1"/>
<feColorMatrix in="SourceAlpha" type="matrix" values="0 0 0 0 0 0 0 0 0 0 0 0 0 0 0 0 0 0 127 0" result="hardAlpha"/>
<feOffset/>
<feGaussianBlur stdDeviation="2.5"/>
<feComposite in2="hardAlpha" operator="out"/>
<feColorMatrix type="matrix" values="0 0 0 0 0.796078 0 0 0 0 0.980392 0 0 0 0 0.960784 0 0 0 1 0"/>
<feBlend mode="normal" in2="effect1_dropShadow_0_1" result="effect2_dropShadow_0_1"/>
<feColorMatrix in="SourceAlpha" type="matrix" values="0 0 0 0 0 0 0 0 0 0 0 0 0 0 0 0 0 0 127 0" result="hardAlpha"/>
<feOffset/>
<feGaussianBlur stdDeviation="2.5"/>
<feComposite in2="hardAlpha" operator="out"/>
<feColorMatrix type="matrix" values="0 0 0 0 0.796078 0 0 0 0 0.980392 0 0 0 0 0.960784 0 0 0 1 0"/>
<feBlend mode="normal" in2="effect2_dropShadow_0_1" result="effect3_dropShadow_0_1"/>
<feColorMatrix in="SourceAlpha" type="matrix" values="0 0 0 0 0 0 0 0 0 0 0 0 0 0 0 0 0 0 127 0" result="hardAlpha"/>
<feOffset/>
<feGaussianBlur stdDeviation="2.5"/>
<feComposite in2="hardAlpha" operator="out"/>
<feColorMatrix type="matrix" values="0 0 0 0 0.796078 0 0 0 0 0.980392 0 0 0 0 0.960784 0 0 0 1 0"/>
<feBlend mode="normal" in2="effect3_dropShadow_0_1" result="effect4_dropShadow_0_1"/>
<feColorMatrix in="SourceAlpha" type="matrix" values="0 0 0 0 0 0 0 0 0 0 0 0 0 0 0 0 0 0 127 0" result="hardAlpha"/>
<feOffset/>
<feGaussianBlur stdDeviation="2.5"/>
<feComposite in2="hardAlpha" operator="out"/>
<feColorMatrix type="matrix" values="0 0 0 0 0.796078 0 0 0 0 0.980392 0 0 0 0 0.960784 0 0 0 1 0"/>
<feBlend mode="normal" in2="effect4_dropShadow_0_1" result="effect5_dropShadow_0_1"/>
<feBlend mode="normal" in="SourceGraphic" in2="effect5_dropShadow_0_1" result="shape"/>
</filter>
<filter id="filter5_ddddd_0_1" x="211.189" y="12.9673" width="77.4453" height="89.9727" filterUnits="userSpaceOnUse" color-interpolation-filters="sRGB">
<feFlood flood-opacity="0" result="BackgroundImageFix"/>
<feColorMatrix in="SourceAlpha" type="matrix" values="0 0 0 0 0 0 0 0 0 0 0 0 0 0 0 0 0 0 127 0" result="hardAlpha"/>
<feOffset/>
<feGaussianBlur stdDeviation="2.5"/>
<feComposite in2="hardAlpha" operator="out"/>
<feColorMatrix type="matrix" values="0 0 0 0 0.796078 0 0 0 0 0.980392 0 0 0 0 0.960784 0 0 0 1 0"/>
<feBlend mode="normal" in2="BackgroundImageFix" result="effect1_dropShadow_0_1"/>
<feColorMatrix in="SourceAlpha" type="matrix" values="0 0 0 0 0 0 0 0 0 0 0 0 0 0 0 0 0 0 127 0" result="hardAlpha"/>
<feOffset/>
<feGaussianBlur stdDeviation="2.5"/>
<feComposite in2="hardAlpha" operator="out"/>
<feColorMatrix type="matrix" values="0 0 0 0 0.796078 0 0 0 0 0.980392 0 0 0 0 0.960784 0 0 0 1 0"/>
<feBlend mode="normal" in2="effect1_dropShadow_0_1" result="effect2_dropShadow_0_1"/>
<feColorMatrix in="SourceAlpha" type="matrix" values="0 0 0 0 0 0 0 0 0 0 0 0 0 0 0 0 0 0 127 0" result="hardAlpha"/>
<feOffset/>
<feGaussianBlur stdDeviation="2.5"/>
<feComposite in2="hardAlpha" operator="out"/>
<feColorMatrix type="matrix" values="0 0 0 0 0.796078 0 0 0 0 0.980392 0 0 0 0 0.960784 0 0 0 1 0"/>
<feBlend mode="normal" in2="effect2_dropShadow_0_1" result="effect3_dropShadow_0_1"/>
<feColorMatrix in="SourceAlpha" type="matrix" values="0 0 0 0 0 0 0 0 0 0 0 0 0 0 0 0 0 0 127 0" result="hardAlpha"/>
<feOffset/>
<feGaussianBlur stdDeviation="2.5"/>
<feComposite in2="hardAlpha" operator="out"/>
<feColorMatrix type="matrix" values="0 0 0 0 0.796078 0 0 0 0 0.980392 0 0 0 0 0.960784 0 0 0 1 0"/>
<feBlend mode="normal" in2="effect3_dropShadow_0_1" result="effect4_dropShadow_0_1"/>
<feColorMatrix in="SourceAlpha" type="matrix" values="0 0 0 0 0 0 0 0 0 0 0 0 0 0 0 0 0 0 127 0" result="hardAlpha"/>
<feOffset/>
<feGaussianBlur stdDeviation="2.5"/>
<feComposite in2="hardAlpha" operator="out"/>
<feColorMatrix type="matrix" values="0 0 0 0 0.796078 0 0 0 0 0.980392 0 0 0 0 0.960784 0 0 0 1 0"/>
<feBlend mode="normal" in2="effect4_dropShadow_0_1" result="effect5_dropShadow_0_1"/>
<feBlend mode="normal" in="SourceGraphic" in2="effect5_dropShadow_0_1" result="shape"/>
</filter>
<filter id="filter6_ddddd_0_1" x="283.189" y="0" width="21" height="93.8794" filterUnits="userSpaceOnUse" color-interpolation-filters="sRGB">
<feFlood flood-opacity="0" result="BackgroundImageFix"/>
<feColorMatrix in="SourceAlpha" type="matrix" values="0 0 0 0 0 0 0 0 0 0 0 0 0 0 0 0 0 0 127 0" result="hardAlpha"/>
<feOffset/>
<feGaussianBlur stdDeviation="2.5"/>
<feComposite in2="hardAlpha" operator="out"/>
<feColorMatrix type="matrix" values="0 0 0 0 0.796078 0 0 0 0 0.980392 0 0 0 0 0.960784 0 0 0 1 0"/>
<feBlend mode="normal" in2="BackgroundImageFix" result="effect1_dropShadow_0_1"/>
<feColorMatrix in="SourceAlpha" type="matrix" values="0 0 0 0 0 0 0 0 0 0 0 0 0 0 0 0 0 0 127 0" result="hardAlpha"/>
<feOffset/>
<feGaussianBlur stdDeviation="2.5"/>
<feComposite in2="hardAlpha" operator="out"/>
<feColorMatrix type="matrix" values="0 0 0 0 0.796078 0 0 0 0 0.980392 0 0 0 0 0.960784 0 0 0 1 0"/>
<feBlend mode="normal" in2="effect1_dropShadow_0_1" result="effect2_dropShadow_0_1"/>
<feColorMatrix in="SourceAlpha" type="matrix" values="0 0 0 0 0 0 0 0 0 0 0 0 0 0 0 0 0 0 127 0" result="hardAlpha"/>
<feOffset/>
<feGaussianBlur stdDeviation="2.5"/>
<feComposite in2="hardAlpha" operator="out"/>
<feColorMatrix type="matrix" values="0 0 0 0 0.796078 0 0 0 0 0.980392 0 0 0 0 0.960784 0 0 0 1 0"/>
<feBlend mode="normal" in2="effect2_dropShadow_0_1" result="effect3_dropShadow_0_1"/>
<feColorMatrix in="SourceAlpha" type="matrix" values="0 0 0 0 0 0 0 0 0 0 0 0 0 0 0 0 0 0 127 0" result="hardAlpha"/>
<feOffset/>
<feGaussianBlur stdDeviation="2.5"/>
<feComposite in2="hardAlpha" operator="out"/>
<feColorMatrix type="matrix" values="0 0 0 0 0.796078 0 0 0 0 0.980392 0 0 0 0 0.960784 0 0 0 1 0"/>
<feBlend mode="normal" in2="effect3_dropShadow_0_1" result="effect4_dropShadow_0_1"/>
<feColorMatrix in="SourceAlpha" type="matrix" values="0 0 0 0 0 0 0 0 0 0 0 0 0 0 0 0 0 0 127 0" result="hardAlpha"/>
<feOffset/>
<feGaussianBlur stdDeviation="2.5"/>
<feComposite in2="hardAlpha" operator="out"/>
<feColorMatrix type="matrix" values="0 0 0 0 0.796078 0 0 0 0 0.980392 0 0 0 0 0.960784 0 0 0 1 0"/>
<feBlend mode="normal" in2="effect4_dropShadow_0_1" result="effect5_dropShadow_0_1"/>
<feBlend mode="normal" in="SourceGraphic" in2="effect5_dropShadow_0_1" result="shape"/>
</filter>
</defs>
</svg>
