<svg width="334" height="146" viewBox="0 0 334 146" fill="none" xmlns="http://www.w3.org/2000/svg">
<g filter="url(#filter0_ddd_0_1)">
<path d="M92.1895 98.9399V43.4399C90.6895 39.9398 86.1895 38.9399 83.6895 43.4399V98.9399C85.6895 102.94 90.1895 102.94 92.1895 98.9399Z" stroke="#CBFAF5" shape-rendering="crispEdges"/>
</g>
<g filter="url(#filter1_ddd_0_1)">
<path d="M44.1891 74.4399C26.1891 74.4399 20.1891 62.4399 22.6891 55.4399C25.0103 42.6732 44.3935 34.3966 60.6891 40.8006C65.4544 42.6733 69.9557 45.8015 73.6891 50.4399C74.6891 57.4399 72.6891 56.4399 68.1891 56.4399C58.1891 42.9399 37.1891 45.9399 31.6891 55.4399C26.1891 64.9399 41.5891 66.1399 53.1891 66.9399C58.6891 66.9399 82.1891 69.4399 74.6891 92.4399C64.6891 102.94 39.1891 107.94 24.6891 94.4399C20.6891 91.9399 17.6891 82.4399 28.1891 83.9399C28.1891 90.4399 38.6891 96.7157 55.1891 94.4399C69.6891 92.4399 71.6891 77.9399 59.6891 75.9399L44.1891 74.4399Z" stroke="#CBFAF5" shape-rendering="crispEdges"/>
</g>
<g filter="url(#filter2_ddd_0_1)">
<ellipse cx="87.6895" cy="28.9395" rx="6" ry="7.5" stroke="#CBFAF5" shape-rendering="crispEdges"/>
</g>
<g filter="url(#filter3_ddd_0_1)">
<path d="M103.19 56.9396L103.649 57.1387L103.653 57.129L103.657 57.1191L103.19 56.9396ZM150.19 48.4396L149.824 48.7799L151.078 50.1307L150.678 48.3312L150.19 48.4396ZM133.19 102.94V102.44H133.174L133.158 102.441L133.19 102.94ZM150.19 91.9396H150.69V90.4823L149.796 91.6326L150.19 91.9396ZM110.19 109.94L110.516 109.56L110.458 109.51L110.387 109.48L110.19 109.94ZM108.19 118.44L108.465 118.022L108.435 118.002L108.403 117.987L108.19 118.44ZM158.19 100.94L158.689 100.97L158.69 100.957L158.69 100.944L158.19 100.94ZM158.69 47.9396L159.19 47.9443L159.19 47.9316L159.19 47.9188L158.69 47.9396ZM103.657 57.1191C107.333 47.5613 115.666 42.0354 124.705 40.6211C133.752 39.2056 143.452 41.9183 149.824 48.7799L150.557 48.0994C143.928 40.9609 133.878 38.1736 124.55 39.6331C115.215 41.0938 106.548 46.818 102.724 56.7601L103.657 57.1191ZM133.158 102.441C121.566 103.181 111.363 98.3717 105.472 90.1484C99.5868 81.934 97.9598 70.2484 103.649 57.1387L102.732 56.7406C96.9208 70.1308 98.5438 82.1952 104.659 90.7308C110.767 99.2575 121.314 104.199 133.222 103.439L133.158 102.441ZM149.796 91.6326C148.056 93.8691 145.712 96.5801 142.888 98.7292C140.062 100.879 136.792 102.44 133.19 102.44V103.44C137.089 103.44 140.568 101.75 143.493 99.525C146.418 97.2991 148.824 94.5101 150.585 92.2466L149.796 91.6326ZM150.69 100.94V91.9396H149.69V100.94H150.69ZM109.865 110.319C117.005 116.439 127.173 118.08 135.548 116.24C143.903 114.405 150.69 109.031 150.69 100.94H149.69C149.69 108.348 143.477 113.474 135.333 115.264C127.207 117.049 117.376 115.44 110.516 109.56L109.865 110.319ZM108.403 117.987C104.247 116.031 103.287 113.366 103.851 111.727C104.404 110.118 106.633 108.959 109.993 110.399L110.387 109.48C106.748 107.92 103.727 109.011 102.905 111.402C102.093 113.764 103.634 116.848 107.977 118.892L108.403 117.987ZM157.691 100.91C156.956 113.169 149.378 120.508 139.617 123.271C129.826 126.042 117.85 124.196 108.465 118.022L107.915 118.857C117.531 125.183 129.805 127.087 139.889 124.233C150.003 121.371 157.925 113.71 158.689 100.97L157.691 100.91ZM158.19 47.9349L157.69 100.935L158.69 100.944L159.19 47.9443L158.19 47.9349ZM150.678 48.3312C149.711 43.9761 151.678 41.2208 153.608 40.8033C154.558 40.5979 155.608 40.9138 156.48 42.0023C157.365 43.1076 158.068 45.0201 158.191 47.9604L159.19 47.9188C159.062 44.8591 158.328 42.7092 157.26 41.377C156.179 40.0279 154.76 39.5313 153.397 39.8259C150.703 40.4085 148.67 43.9032 149.702 48.5481L150.678 48.3312ZM150.19 70.4396C150.19 83.4714 140.738 93.9396 129.19 93.9396V94.9396C141.391 94.9396 151.19 83.9174 151.19 70.4396H150.19ZM129.19 46.9396C140.738 46.9396 150.19 57.4078 150.19 70.4396H151.19C151.19 56.9618 141.391 45.9396 129.19 45.9396V46.9396ZM108.19 70.4396C108.19 57.4078 117.643 46.9396 129.19 46.9396V45.9396C116.99 45.9396 107.19 56.9618 107.19 70.4396H108.19ZM129.19 93.9396C117.643 93.9396 108.19 83.4714 108.19 70.4396H107.19C107.19 83.9174 116.99 94.9396 129.19 94.9396V93.9396Z" fill="#CBFAF5"/>
</g>
<g filter="url(#filter4_ddd_0_1)">
<path d="M166.189 42.9398V99.4398C168.689 102.94 171.689 104.44 174.689 98.4398V64.9398C184.189 40.9398 211.189 42.9398 216.689 64.9398V99.4398C219.189 103.94 223.189 103.44 224.689 98.4398V64.9398C220.858 39.1639 199.798 35.7125 186.189 41.0619C180.264 43.3913 175.751 47.3895 174.689 51.9398L174.189 53.4398V54.9398V41.9398C169.189 38.9398 167.689 39.9398 166.189 42.9398Z" stroke="#CBFAF5" shape-rendering="crispEdges"/>
</g>
<g filter="url(#filter5_ddd_0_1)">
<path d="M232.189 98.9398L231.726 98.7528L231.689 98.8428V98.9398H232.189ZM256.189 39.4398L255.789 39.1398L255.75 39.1922L255.726 39.2528L256.189 39.4398ZM242.689 111.94L242.577 112.427L242.633 112.44H242.689V111.94ZM289.689 111.94V112.44H289.792L289.886 112.399L289.689 111.94ZM296.689 95.9398L297.176 95.824L297.167 95.7868L297.153 95.7513L296.689 95.9398ZM275.928 44.9398L276.391 44.7513L276.391 44.7513L275.928 44.9398ZM273.689 39.4398L274.153 39.2513L274.131 39.1992L274.099 39.1531L273.689 39.4398ZM279.189 65.4398L279.637 65.6634L279.74 65.4567L279.65 65.2441L279.189 65.4398ZM243.189 85.4398L242.724 85.2578L242.457 85.9398H243.189V85.4398ZM269.189 41.9398L269.65 41.7441L269.606 41.6422L269.524 41.5682L269.189 41.9398ZM261.747 41.2062L262.024 41.6224L262.024 41.6224L261.747 41.2062ZM260.189 41.9398V41.4398H259.848L259.724 41.7578L260.189 41.9398ZM232.653 99.1269L256.653 39.6269L255.726 39.2528L231.726 98.7528L232.653 99.1269ZM242.802 111.453C239.607 110.715 237.095 109.501 235.378 107.547C233.666 105.6 232.689 102.855 232.689 98.9398H231.689C231.689 103.025 232.712 106.029 234.626 108.207C236.534 110.378 239.272 111.664 242.577 112.427L242.802 111.453ZM289.689 111.44H242.689V112.44H289.689V111.44ZM296.203 96.0556C297.449 101.29 297.407 104.383 296.307 106.524C295.21 108.661 292.997 109.978 289.492 111.48L289.886 112.399C293.382 110.901 295.919 109.469 297.197 106.981C298.472 104.497 298.43 101.089 297.176 95.824L296.203 96.0556ZM275.465 45.1283L296.226 96.1284L297.153 95.7513L276.391 44.7513L275.465 45.1283ZM273.226 39.6284L275.465 45.1283L276.391 44.7513L274.153 39.2513L273.226 39.6284ZM256.589 39.7398C258.059 37.7799 260.595 35.3866 263.556 34.676C265.021 34.3245 266.594 34.3828 268.218 35.1145C269.849 35.8491 271.566 37.2784 273.28 39.7266L274.099 39.1531C272.313 36.6013 270.467 35.0306 268.629 34.2027C266.785 33.3719 264.983 33.3052 263.323 33.7036C260.033 34.4931 257.319 37.0998 255.789 39.1398L256.589 39.7398ZM278.742 65.2162C276.304 70.0931 270.897 75.0306 264.318 78.7547C257.746 82.4746 250.081 84.9398 243.189 84.9398V85.9398C250.298 85.9398 258.133 83.4051 264.811 79.625C271.482 75.8491 277.075 70.7866 279.637 65.6634L278.742 65.2162ZM268.729 42.1356L278.729 65.6356L279.65 65.2441L269.65 41.7441L268.729 42.1356ZM262.024 41.6224C262.829 41.0873 263.678 40.5321 264.739 40.4501C265.77 40.3703 267.106 40.737 268.855 42.3115L269.524 41.5682C267.641 39.8734 266.047 39.3459 264.662 39.453C263.306 39.5579 262.251 40.2705 261.47 40.79L262.024 41.6224ZM260.189 42.4398C260.535 42.4398 260.861 42.3137 261.146 42.1658C261.433 42.0169 261.733 41.8167 262.024 41.6224L261.47 40.79C261.166 40.9928 260.914 41.1594 260.686 41.2781C260.455 41.3977 260.299 41.4398 260.189 41.4398V42.4398ZM243.655 85.6218L260.655 42.1218L259.724 41.7578L242.724 85.2578L243.655 85.6218Z" fill="#CBFAF5"/>
</g>
<g filter="url(#filter6_ddd_0_1)">
<path d="M313.189 98.9397V24.9397C311.189 19.4397 306.189 19.9397 304.189 24.9397V98.9397C306.689 103.94 310.189 104.44 313.189 98.9397Z" stroke="#CBFAF5" shape-rendering="crispEdges"/>
</g>
<defs>
<filter id="filter0_ddd_0_1" x="63.1895" y="19.9282" width="49.5" height="102.512" filterUnits="userSpaceOnUse" color-interpolation-filters="sRGB">
<feFlood flood-opacity="0" result="BackgroundImageFix"/>
<feColorMatrix in="SourceAlpha" type="matrix" values="0 0 0 0 0 0 0 0 0 0 0 0 0 0 0 0 0 0 127 0" result="hardAlpha"/>
<feOffset/>
<feGaussianBlur stdDeviation="10"/>
<feComposite in2="hardAlpha" operator="out"/>
<feColorMatrix type="matrix" values="0 0 0 0 0.796078 0 0 0 0 0.980392 0 0 0 0 0.960784 0 0 0 1 0"/>
<feBlend mode="normal" in2="BackgroundImageFix" result="effect1_dropShadow_0_1"/>
<feColorMatrix in="SourceAlpha" type="matrix" values="0 0 0 0 0 0 0 0 0 0 0 0 0 0 0 0 0 0 127 0" result="hardAlpha"/>
<feOffset/>
<feGaussianBlur stdDeviation="10"/>
<feComposite in2="hardAlpha" operator="out"/>
<feColorMatrix type="matrix" values="0 0 0 0 0.796078 0 0 0 0 0.980392 0 0 0 0 0.960784 0 0 0 1 0"/>
<feBlend mode="normal" in2="effect1_dropShadow_0_1" result="effect2_dropShadow_0_1"/>
<feColorMatrix in="SourceAlpha" type="matrix" values="0 0 0 0 0 0 0 0 0 0 0 0 0 0 0 0 0 0 127 0" result="hardAlpha"/>
<feOffset/>
<feGaussianBlur stdDeviation="10"/>
<feComposite in2="hardAlpha" operator="out"/>
<feColorMatrix type="matrix" values="0 0 0 0 0.796078 0 0 0 0 0.980392 0 0 0 0 0.960784 0 0 0 1 0"/>
<feBlend mode="normal" in2="effect2_dropShadow_0_1" result="effect3_dropShadow_0_1"/>
<feBlend mode="normal" in="SourceGraphic" in2="effect3_dropShadow_0_1" result="shape"/>
</filter>
<filter id="filter1_ddd_0_1" x="0.5" y="18.0854" width="96.1523" height="105.041" filterUnits="userSpaceOnUse" color-interpolation-filters="sRGB">
<feFlood flood-opacity="0" result="BackgroundImageFix"/>
<feColorMatrix in="SourceAlpha" type="matrix" values="0 0 0 0 0 0 0 0 0 0 0 0 0 0 0 0 0 0 127 0" result="hardAlpha"/>
<feOffset/>
<feGaussianBlur stdDeviation="10"/>
<feComposite in2="hardAlpha" operator="out"/>
<feColorMatrix type="matrix" values="0 0 0 0 0.796078 0 0 0 0 0.980392 0 0 0 0 0.960784 0 0 0 1 0"/>
<feBlend mode="normal" in2="BackgroundImageFix" result="effect1_dropShadow_0_1"/>
<feColorMatrix in="SourceAlpha" type="matrix" values="0 0 0 0 0 0 0 0 0 0 0 0 0 0 0 0 0 0 127 0" result="hardAlpha"/>
<feOffset/>
<feGaussianBlur stdDeviation="10"/>
<feComposite in2="hardAlpha" operator="out"/>
<feColorMatrix type="matrix" values="0 0 0 0 0.796078 0 0 0 0 0.980392 0 0 0 0 0.960784 0 0 0 1 0"/>
<feBlend mode="normal" in2="effect1_dropShadow_0_1" result="effect2_dropShadow_0_1"/>
<feColorMatrix in="SourceAlpha" type="matrix" values="0 0 0 0 0 0 0 0 0 0 0 0 0 0 0 0 0 0 127 0" result="hardAlpha"/>
<feOffset/>
<feGaussianBlur stdDeviation="10"/>
<feComposite in2="hardAlpha" operator="out"/>
<feColorMatrix type="matrix" values="0 0 0 0 0.796078 0 0 0 0 0.980392 0 0 0 0 0.960784 0 0 0 1 0"/>
<feBlend mode="normal" in2="effect2_dropShadow_0_1" result="effect3_dropShadow_0_1"/>
<feBlend mode="normal" in="SourceGraphic" in2="effect3_dropShadow_0_1" result="shape"/>
</filter>
<filter id="filter2_ddd_0_1" x="61.1895" y="0.939453" width="53" height="56" filterUnits="userSpaceOnUse" color-interpolation-filters="sRGB">
<feFlood flood-opacity="0" result="BackgroundImageFix"/>
<feColorMatrix in="SourceAlpha" type="matrix" values="0 0 0 0 0 0 0 0 0 0 0 0 0 0 0 0 0 0 127 0" result="hardAlpha"/>
<feOffset/>
<feGaussianBlur stdDeviation="10"/>
<feComposite in2="hardAlpha" operator="out"/>
<feColorMatrix type="matrix" values="0 0 0 0 0.796078 0 0 0 0 0.980392 0 0 0 0 0.960784 0 0 0 1 0"/>
<feBlend mode="normal" in2="BackgroundImageFix" result="effect1_dropShadow_0_1"/>
<feColorMatrix in="SourceAlpha" type="matrix" values="0 0 0 0 0 0 0 0 0 0 0 0 0 0 0 0 0 0 127 0" result="hardAlpha"/>
<feOffset/>
<feGaussianBlur stdDeviation="10"/>
<feComposite in2="hardAlpha" operator="out"/>
<feColorMatrix type="matrix" values="0 0 0 0 0.796078 0 0 0 0 0.980392 0 0 0 0 0.960784 0 0 0 1 0"/>
<feBlend mode="normal" in2="effect1_dropShadow_0_1" result="effect2_dropShadow_0_1"/>
<feColorMatrix in="SourceAlpha" type="matrix" values="0 0 0 0 0 0 0 0 0 0 0 0 0 0 0 0 0 0 127 0" result="hardAlpha"/>
<feOffset/>
<feGaussianBlur stdDeviation="10"/>
<feComposite in2="hardAlpha" operator="out"/>
<feColorMatrix type="matrix" values="0 0 0 0 0.796078 0 0 0 0 0.980392 0 0 0 0 0.960784 0 0 0 1 0"/>
<feBlend mode="normal" in2="effect2_dropShadow_0_1" result="effect3_dropShadow_0_1"/>
<feBlend mode="normal" in="SourceGraphic" in2="effect3_dropShadow_0_1" result="shape"/>
</filter>
<filter id="filter3_ddd_0_1" x="79.125" y="19.2573" width="100.064" height="126.269" filterUnits="userSpaceOnUse" color-interpolation-filters="sRGB">
<feFlood flood-opacity="0" result="BackgroundImageFix"/>
<feColorMatrix in="SourceAlpha" type="matrix" values="0 0 0 0 0 0 0 0 0 0 0 0 0 0 0 0 0 0 127 0" result="hardAlpha"/>
<feOffset/>
<feGaussianBlur stdDeviation="10"/>
<feComposite in2="hardAlpha" operator="out"/>
<feColorMatrix type="matrix" values="0 0 0 0 0.796078 0 0 0 0 0.980392 0 0 0 0 0.960784 0 0 0 1 0"/>
<feBlend mode="normal" in2="BackgroundImageFix" result="effect1_dropShadow_0_1"/>
<feColorMatrix in="SourceAlpha" type="matrix" values="0 0 0 0 0 0 0 0 0 0 0 0 0 0 0 0 0 0 127 0" result="hardAlpha"/>
<feOffset/>
<feGaussianBlur stdDeviation="10"/>
<feComposite in2="hardAlpha" operator="out"/>
<feColorMatrix type="matrix" values="0 0 0 0 0.796078 0 0 0 0 0.980392 0 0 0 0 0.960784 0 0 0 1 0"/>
<feBlend mode="normal" in2="effect1_dropShadow_0_1" result="effect2_dropShadow_0_1"/>
<feColorMatrix in="SourceAlpha" type="matrix" values="0 0 0 0 0 0 0 0 0 0 0 0 0 0 0 0 0 0 127 0" result="hardAlpha"/>
<feOffset/>
<feGaussianBlur stdDeviation="10"/>
<feComposite in2="hardAlpha" operator="out"/>
<feColorMatrix type="matrix" values="0 0 0 0 0.796078 0 0 0 0 0.980392 0 0 0 0 0.960784 0 0 0 1 0"/>
<feBlend mode="normal" in2="effect2_dropShadow_0_1" result="effect3_dropShadow_0_1"/>
<feBlend mode="normal" in="SourceGraphic" in2="effect3_dropShadow_0_1" result="shape"/>
</filter>
<filter id="filter4_ddd_0_1" x="145.689" y="18.4106" width="99.5" height="104.614" filterUnits="userSpaceOnUse" color-interpolation-filters="sRGB">
<feFlood flood-opacity="0" result="BackgroundImageFix"/>
<feColorMatrix in="SourceAlpha" type="matrix" values="0 0 0 0 0 0 0 0 0 0 0 0 0 0 0 0 0 0 127 0" result="hardAlpha"/>
<feOffset/>
<feGaussianBlur stdDeviation="10"/>
<feComposite in2="hardAlpha" operator="out"/>
<feColorMatrix type="matrix" values="0 0 0 0 0.796078 0 0 0 0 0.980392 0 0 0 0 0.960784 0 0 0 1 0"/>
<feBlend mode="normal" in2="BackgroundImageFix" result="effect1_dropShadow_0_1"/>
<feColorMatrix in="SourceAlpha" type="matrix" values="0 0 0 0 0 0 0 0 0 0 0 0 0 0 0 0 0 0 127 0" result="hardAlpha"/>
<feOffset/>
<feGaussianBlur stdDeviation="10"/>
<feComposite in2="hardAlpha" operator="out"/>
<feColorMatrix type="matrix" values="0 0 0 0 0.796078 0 0 0 0 0.980392 0 0 0 0 0.960784 0 0 0 1 0"/>
<feBlend mode="normal" in2="effect1_dropShadow_0_1" result="effect2_dropShadow_0_1"/>
<feColorMatrix in="SourceAlpha" type="matrix" values="0 0 0 0 0 0 0 0 0 0 0 0 0 0 0 0 0 0 127 0" result="hardAlpha"/>
<feOffset/>
<feGaussianBlur stdDeviation="10"/>
<feComposite in2="hardAlpha" operator="out"/>
<feColorMatrix type="matrix" values="0 0 0 0 0.796078 0 0 0 0 0.980392 0 0 0 0 0.960784 0 0 0 1 0"/>
<feBlend mode="normal" in2="effect2_dropShadow_0_1" result="effect3_dropShadow_0_1"/>
<feBlend mode="normal" in="SourceGraphic" in2="effect3_dropShadow_0_1" result="shape"/>
</filter>
<filter id="filter5_ddd_0_1" x="211.689" y="13.4673" width="106.445" height="118.973" filterUnits="userSpaceOnUse" color-interpolation-filters="sRGB">
<feFlood flood-opacity="0" result="BackgroundImageFix"/>
<feColorMatrix in="SourceAlpha" type="matrix" values="0 0 0 0 0 0 0 0 0 0 0 0 0 0 0 0 0 0 127 0" result="hardAlpha"/>
<feOffset/>
<feGaussianBlur stdDeviation="10"/>
<feComposite in2="hardAlpha" operator="out"/>
<feColorMatrix type="matrix" values="0 0 0 0 0.796078 0 0 0 0 0.980392 0 0 0 0 0.960784 0 0 0 1 0"/>
<feBlend mode="normal" in2="BackgroundImageFix" result="effect1_dropShadow_0_1"/>
<feColorMatrix in="SourceAlpha" type="matrix" values="0 0 0 0 0 0 0 0 0 0 0 0 0 0 0 0 0 0 127 0" result="hardAlpha"/>
<feOffset/>
<feGaussianBlur stdDeviation="10"/>
<feComposite in2="hardAlpha" operator="out"/>
<feColorMatrix type="matrix" values="0 0 0 0 0.796078 0 0 0 0 0.980392 0 0 0 0 0.960784 0 0 0 1 0"/>
<feBlend mode="normal" in2="effect1_dropShadow_0_1" result="effect2_dropShadow_0_1"/>
<feColorMatrix in="SourceAlpha" type="matrix" values="0 0 0 0 0 0 0 0 0 0 0 0 0 0 0 0 0 0 127 0" result="hardAlpha"/>
<feOffset/>
<feGaussianBlur stdDeviation="10"/>
<feComposite in2="hardAlpha" operator="out"/>
<feColorMatrix type="matrix" values="0 0 0 0 0.796078 0 0 0 0 0.980392 0 0 0 0 0.960784 0 0 0 1 0"/>
<feBlend mode="normal" in2="effect2_dropShadow_0_1" result="effect3_dropShadow_0_1"/>
<feBlend mode="normal" in="SourceGraphic" in2="effect3_dropShadow_0_1" result="shape"/>
</filter>
<filter id="filter6_ddd_0_1" x="283.689" y="0.5" width="50" height="122.879" filterUnits="userSpaceOnUse" color-interpolation-filters="sRGB">
<feFlood flood-opacity="0" result="BackgroundImageFix"/>
<feColorMatrix in="SourceAlpha" type="matrix" values="0 0 0 0 0 0 0 0 0 0 0 0 0 0 0 0 0 0 127 0" result="hardAlpha"/>
<feOffset/>
<feGaussianBlur stdDeviation="10"/>
<feComposite in2="hardAlpha" operator="out"/>
<feColorMatrix type="matrix" values="0 0 0 0 0.796078 0 0 0 0 0.980392 0 0 0 0 0.960784 0 0 0 1 0"/>
<feBlend mode="normal" in2="BackgroundImageFix" result="effect1_dropShadow_0_1"/>
<feColorMatrix in="SourceAlpha" type="matrix" values="0 0 0 0 0 0 0 0 0 0 0 0 0 0 0 0 0 0 127 0" result="hardAlpha"/>
<feOffset/>
<feGaussianBlur stdDeviation="10"/>
<feComposite in2="hardAlpha" operator="out"/>
<feColorMatrix type="matrix" values="0 0 0 0 0.796078 0 0 0 0 0.980392 0 0 0 0 0.960784 0 0 0 1 0"/>
<feBlend mode="normal" in2="effect1_dropShadow_0_1" result="effect2_dropShadow_0_1"/>
<feColorMatrix in="SourceAlpha" type="matrix" values="0 0 0 0 0 0 0 0 0 0 0 0 0 0 0 0 0 0 127 0" result="hardAlpha"/>
<feOffset/>
<feGaussianBlur stdDeviation="10"/>
<feComposite in2="hardAlpha" operator="out"/>
<feColorMatrix type="matrix" values="0 0 0 0 0.796078 0 0 0 0 0.980392 0 0 0 0 0.960784 0 0 0 1 0"/>
<feBlend mode="normal" in2="effect2_dropShadow_0_1" result="effect3_dropShadow_0_1"/>
<feBlend mode="normal" in="SourceGraphic" in2="effect3_dropShadow_0_1" result="shape"/>
</filter>
</defs>
</svg>
