<svg width="293" height="105" viewBox="0 0 293 105" fill="none" xmlns="http://www.w3.org/2000/svg">
<g style="mix-blend-mode:difference">
<path d="M71.1895 77.9399V22.4399C69.6895 18.9398 65.1895 17.9399 62.6895 22.4399V77.9399C64.6895 81.9399 69.1895 81.9398 71.1895 77.9399Z" fill="white"/>
</g>
<g style="mix-blend-mode:difference">
<path d="M23.1891 53.4399C5.18911 53.4399 -0.810879 41.4399 1.6891 34.4399C4.01031 21.6732 23.3935 13.3966 39.6891 19.8006C44.4544 21.6733 48.9557 24.8015 52.6891 29.4399C53.6891 36.4399 51.6891 35.4399 47.1891 35.4399C37.1891 21.9399 16.1891 24.9399 10.6891 34.4399C5.18912 43.9399 20.5891 45.1399 32.1891 45.9399C37.6891 45.9399 61.1891 48.4399 53.6891 71.4399C43.6891 81.9399 18.1891 86.9399 3.68913 73.4399C-0.310885 70.9399 -3.31087 61.4399 7.18913 62.9399C7.18913 69.4399 17.6891 75.7157 34.1891 73.4399C48.6891 71.4399 50.6891 56.9399 38.6891 54.9399L23.1891 53.4399Z" fill="white"/>
</g>
<g style="mix-blend-mode:difference">
<ellipse cx="66.6895" cy="7.93945" rx="6" ry="7.5" fill="white"/>
</g>
<g style="mix-blend-mode:difference">
<path fill-rule="evenodd" clip-rule="evenodd" d="M129.19 27.4396C116.19 13.4396 89.6903 16.4396 82.1903 35.9396C70.6903 62.4396 88.6903 83.4396 112.19 81.9396C119.69 81.9396 125.69 75.4396 129.19 70.9396V79.9396C129.19 95.4396 103.19 100.94 89.1903 88.9396C82.1903 85.9396 78.6903 93.4396 87.1903 97.4396C106.19 109.94 135.69 104.94 137.19 79.9396L137.69 26.9396C137.19 14.9396 127.19 18.4396 129.19 27.4396ZM108.19 73.4396C120.064 73.4396 129.69 62.6944 129.69 49.4396C129.69 36.1848 120.064 25.4396 108.19 25.4396C96.3162 25.4396 86.6903 36.1848 86.6903 49.4396C86.6903 62.6944 96.3162 73.4396 108.19 73.4396Z" fill="white"/>
</g>
<g style="mix-blend-mode:difference">
<path d="M145.189 78.4398V21.9398C146.689 18.9398 148.189 17.9398 153.189 20.9398V32.4398L153.689 30.9398C154.751 26.3895 159.264 22.3913 165.189 20.0619C178.798 14.7125 199.858 18.1639 203.689 43.9398V77.4398C202.189 82.4398 198.189 82.9398 195.689 78.4398V43.9398C190.189 21.9398 163.189 19.9398 153.689 43.9398V77.4398C150.689 83.4398 147.689 81.9398 145.189 78.4398Z" fill="white"/>
</g>
<g style="mix-blend-mode:difference">
<path fill-rule="evenodd" clip-rule="evenodd" d="M235.189 18.4398L211.189 77.9398C211.189 85.9398 215.189 89.4398 221.689 90.9398H268.689C275.689 87.9398 278.189 85.4398 275.689 74.9398L254.928 23.9398L252.689 18.4398C245.689 8.43983 238.189 14.4398 235.189 18.4398ZM222.189 64.4398C236.189 64.4398 253.189 54.4398 258.189 44.4398L248.189 20.9398C244.557 17.6706 242.332 19.1516 240.747 20.2062C240.151 20.6032 239.645 20.9398 239.189 20.9398L222.189 64.4398Z" fill="white"/>
</g>
<g style="mix-blend-mode:difference">
<path d="M292.189 77.9397V3.93973C290.189 -1.56027 285.189 -1.06027 283.189 3.93973V77.9397C285.689 82.9397 289.189 83.4397 292.189 77.9397Z" fill="white"/>
</g>
</svg>
