<svg width="335" height="147" viewBox="0 0 335 147" fill="none" xmlns="http://www.w3.org/2000/svg">
<g filter="url(#filter0_dddd_0_1)">
<path d="M92.1895 98.9399V43.4399C90.6895 39.9398 86.1895 38.9399 83.6895 43.4399V98.9399C85.6895 102.94 90.1895 102.94 92.1895 98.9399Z" stroke="#CBFAF5" stroke-width="2" shape-rendering="crispEdges"/>
</g>
<g filter="url(#filter1_dddd_0_1)">
<path d="M44.1891 74.4399C26.1891 74.4399 20.1891 62.4399 22.6891 55.4399C25.0103 42.6732 44.3935 34.3966 60.6891 40.8006C65.4544 42.6733 69.9557 45.8015 73.6891 50.4399C74.6891 57.4399 72.6891 56.4399 68.1891 56.4399C58.1891 42.9399 37.1891 45.9399 31.6891 55.4399C26.1891 64.9399 41.5891 66.1399 53.1891 66.9399C58.6891 66.9399 82.1891 69.4399 74.6891 92.4399C64.6891 102.94 39.1891 107.94 24.6891 94.4399C20.6891 91.9399 17.6891 82.4399 28.1891 83.9399C28.1891 90.4399 38.6891 96.7157 55.1891 94.4399C69.6891 92.4399 71.6891 77.9399 59.6891 75.9399L44.1891 74.4399Z" stroke="#CBFAF5" stroke-width="2" shape-rendering="crispEdges"/>
</g>
<g filter="url(#filter2_dddd_0_1)">
<ellipse cx="87.6895" cy="28.9395" rx="6" ry="7.5" stroke="#CBFAF5" stroke-width="2" shape-rendering="crispEdges"/>
</g>
<g filter="url(#filter3_dddd_0_1)">
<path d="M103.19 56.9396L104.108 57.3377L104.116 57.3183L104.124 57.2986L103.19 56.9396ZM150.19 48.4396L149.457 49.1201L151.966 51.8218L151.166 48.2227L150.19 48.4396ZM133.19 102.94V101.94H133.158L133.127 101.942L133.19 102.94ZM150.19 91.9396H151.19V89.0251L149.401 91.3257L150.19 91.9396ZM110.19 109.94L110.841 109.18L110.725 109.081L110.584 109.02L110.19 109.94ZM108.19 118.44L108.74 117.604L108.68 117.565L108.616 117.535L108.19 118.44ZM158.19 100.94L159.188 100.999L159.19 100.974L159.19 100.949L158.19 100.94ZM158.69 47.9396L159.69 47.949L159.69 47.9235L159.689 47.898L158.69 47.9396ZM104.124 57.2986C107.726 47.9329 115.891 42.5062 124.782 41.1151C133.689 39.7215 143.215 42.3971 149.457 49.1201L150.923 47.7592C144.166 40.4822 133.942 37.6577 124.473 39.1391C114.989 40.623 106.155 46.4463 102.257 56.5806L104.124 57.2986ZM133.127 101.942C121.692 102.672 111.661 97.9289 105.878 89.8572C100.108 81.8033 98.4793 70.3072 104.108 57.3377L102.273 56.5415C96.4012 70.072 98.0223 82.3259 104.252 91.022C110.47 99.7003 121.189 104.708 133.254 103.938L133.127 101.942ZM149.401 91.3257C147.672 93.5487 145.359 96.2205 142.585 98.3313C139.81 100.443 136.644 101.94 133.19 101.94V103.94C137.237 103.94 140.821 102.186 143.796 99.9229C146.772 97.6587 149.209 94.8305 150.98 92.5535L149.401 91.3257ZM151.19 100.94V91.9396H149.19V100.94H151.19ZM109.54 110.699C116.819 116.939 127.156 118.596 135.655 116.729C144.116 114.87 151.19 109.373 151.19 100.94H149.19C149.19 108.006 143.264 113.009 135.226 114.775C127.225 116.533 117.561 114.94 110.841 109.18L109.54 110.699ZM108.616 117.535C104.553 115.623 103.885 113.166 104.323 111.89C104.742 110.671 106.575 109.478 109.796 110.859L110.584 109.02C106.805 107.401 103.388 108.458 102.432 111.24C101.496 113.963 103.327 117.256 107.764 119.344L108.616 117.535ZM157.192 100.88C156.471 112.899 149.065 120.077 139.48 122.79C129.836 125.519 118.01 123.703 108.74 117.604L107.641 119.275C117.371 125.676 129.794 127.61 140.025 124.714C150.315 121.802 158.41 113.98 159.188 100.999L157.192 100.88ZM157.69 47.9302L157.19 100.93L159.19 100.949L159.69 47.949L157.69 47.9302ZM151.166 48.2227C150.231 44.0125 152.165 41.6269 153.714 41.292C154.458 41.1313 155.322 41.3568 156.09 42.3149C156.884 43.3068 157.571 45.1006 157.691 47.9812L159.689 47.898C159.559 44.7786 158.809 42.51 157.65 41.0643C156.465 39.5849 154.86 38.9979 153.291 39.3372C150.215 40.0023 148.15 43.8667 149.214 48.6566L151.166 48.2227ZM149.69 70.4396C149.69 83.2484 140.412 93.4396 129.19 93.4396V95.4396C141.717 95.4396 151.69 84.1404 151.69 70.4396H149.69ZM129.19 47.4396C140.412 47.4396 149.69 57.6308 149.69 70.4396H151.69C151.69 56.7388 141.717 45.4396 129.19 45.4396V47.4396ZM108.69 70.4396C108.69 57.6308 117.969 47.4396 129.19 47.4396V45.4396C116.663 45.4396 106.69 56.7388 106.69 70.4396H108.69ZM129.19 93.4396C117.969 93.4396 108.69 83.2484 108.69 70.4396H106.69C106.69 84.1404 116.663 95.4396 129.19 95.4396V93.4396Z" fill="#CBFAF5"/>
</g>
<g filter="url(#filter4_dddd_0_1)">
<path d="M166.189 42.9398V99.4398C168.689 102.94 171.689 104.44 174.689 98.4398V64.9398C184.189 40.9398 211.189 42.9398 216.689 64.9398V99.4398C219.189 103.94 223.189 103.44 224.689 98.4398V64.9398C220.858 39.1639 199.798 35.7125 186.189 41.0619C180.264 43.3913 175.751 47.3895 174.689 51.9398L174.189 53.4398V54.9398V41.9398C169.189 38.9398 167.689 39.9398 166.189 42.9398Z" stroke="#CBFAF5" stroke-width="2" shape-rendering="crispEdges"/>
</g>
<g filter="url(#filter5_dddd_0_1)">
<path d="M232.189 98.9398L231.262 98.5658L231.189 98.7458V98.9398H232.189ZM256.189 39.4398L255.389 38.8398L255.311 38.9445L255.262 39.0658L256.189 39.4398ZM242.689 111.94L242.465 112.914L242.576 112.94H242.689V111.94ZM289.689 111.94V112.94H289.895L290.083 112.859L289.689 111.94ZM296.689 95.9398L297.662 95.7082L297.645 95.6337L297.616 95.5628L296.689 95.9398ZM275.928 44.9398L276.855 44.5628L276.855 44.5628L275.928 44.9398ZM273.689 39.4398L274.616 39.0628L274.573 38.9586L274.509 38.8664L273.689 39.4398ZM279.189 65.4398L280.084 65.8871L280.291 65.4736L280.11 65.0483L279.189 65.4398ZM243.189 85.4398L242.258 85.0758L241.725 86.4398H243.189V85.4398ZM269.189 41.9398L270.11 41.5483L270.023 41.3446L269.858 41.1965L269.189 41.9398ZM261.747 41.2062L262.302 42.0387L262.302 42.0387L261.747 41.2062ZM260.189 41.9398V40.9398H259.507L259.258 41.5758L260.189 41.9398ZM233.117 99.3139L257.117 39.8139L255.262 39.0658L231.262 98.5658L233.117 99.3139ZM242.914 110.965C239.775 110.241 237.375 109.063 235.753 107.217C234.143 105.386 233.189 102.77 233.189 98.9398H231.189C231.189 103.11 232.235 106.244 234.251 108.537C236.254 110.817 239.104 112.139 242.465 112.914L242.914 110.965ZM289.689 110.94H242.689V112.94H289.689V110.94ZM295.717 96.1715C296.959 101.391 296.874 104.326 295.862 106.296C294.855 108.257 292.804 109.517 289.296 111.021L290.083 112.859C293.575 111.363 296.274 109.873 297.642 107.209C299.005 104.554 298.92 100.989 297.662 95.7082L295.717 96.1715ZM275.002 45.3169L295.763 96.3169L297.616 95.5628L276.855 44.5628L275.002 45.3169ZM272.763 39.8169L275.002 45.3169L276.855 44.5628L274.616 39.0628L272.763 39.8169ZM256.989 40.0398C258.429 38.12 260.876 35.8334 263.673 35.1622C265.04 34.8341 266.499 34.8883 268.013 35.5704C269.541 36.2584 271.193 37.6169 272.87 40.0133L274.509 38.8664C272.686 36.2628 270.776 34.6213 268.835 33.7468C266.88 32.8664 264.964 32.7956 263.206 33.2174C259.752 34.0463 256.95 36.7597 255.389 38.8398L256.989 40.0398ZM278.295 64.9926C275.918 69.7463 270.605 74.6214 264.072 78.3196C257.553 82.0093 249.973 84.4398 243.189 84.4398V86.4398C250.406 86.4398 258.326 83.8703 265.057 80.0601C271.774 76.2583 277.461 71.1334 280.084 65.8871L278.295 64.9926ZM268.269 42.3314L278.269 65.8314L280.11 65.0483L270.11 41.5483L268.269 42.3314ZM262.302 42.0387C263.117 41.4956 263.865 41.0191 264.778 40.9486C265.632 40.8825 266.838 41.1688 268.52 42.6831L269.858 41.1965C267.908 39.4416 266.186 38.8337 264.623 38.9545C263.119 39.0708 261.962 39.8622 261.193 40.3738L262.302 42.0387ZM260.189 42.9398C260.654 42.9398 261.064 42.7717 261.376 42.6096C261.692 42.4457 262.016 42.2286 262.302 42.0387L261.193 40.3738C260.882 40.5808 260.655 40.7306 260.455 40.8342C260.252 40.9397 260.181 40.9398 260.189 40.9398V42.9398ZM244.121 85.8038L261.121 42.3038L259.258 41.5758L242.258 85.0758L244.121 85.8038Z" fill="#CBFAF5"/>
</g>
<g filter="url(#filter6_dddd_0_1)">
<path d="M313.189 98.9397V24.9397C311.189 19.4397 306.189 19.9397 304.189 24.9397V98.9397C306.689 103.94 310.189 104.44 313.189 98.9397Z" stroke="#CBFAF5" stroke-width="2" shape-rendering="crispEdges"/>
</g>
<defs>
<filter id="filter0_dddd_0_1" x="62.6895" y="19.4282" width="50.5" height="103.512" filterUnits="userSpaceOnUse" color-interpolation-filters="sRGB">
<feFlood flood-opacity="0" result="BackgroundImageFix"/>
<feColorMatrix in="SourceAlpha" type="matrix" values="0 0 0 0 0 0 0 0 0 0 0 0 0 0 0 0 0 0 127 0" result="hardAlpha"/>
<feOffset/>
<feGaussianBlur stdDeviation="10"/>
<feComposite in2="hardAlpha" operator="out"/>
<feColorMatrix type="matrix" values="0 0 0 0 0.796078 0 0 0 0 0.980392 0 0 0 0 0.960784 0 0 0 1 0"/>
<feBlend mode="normal" in2="BackgroundImageFix" result="effect1_dropShadow_0_1"/>
<feColorMatrix in="SourceAlpha" type="matrix" values="0 0 0 0 0 0 0 0 0 0 0 0 0 0 0 0 0 0 127 0" result="hardAlpha"/>
<feOffset/>
<feGaussianBlur stdDeviation="10"/>
<feComposite in2="hardAlpha" operator="out"/>
<feColorMatrix type="matrix" values="0 0 0 0 0.796078 0 0 0 0 0.980392 0 0 0 0 0.960784 0 0 0 1 0"/>
<feBlend mode="normal" in2="effect1_dropShadow_0_1" result="effect2_dropShadow_0_1"/>
<feColorMatrix in="SourceAlpha" type="matrix" values="0 0 0 0 0 0 0 0 0 0 0 0 0 0 0 0 0 0 127 0" result="hardAlpha"/>
<feOffset/>
<feGaussianBlur stdDeviation="10"/>
<feComposite in2="hardAlpha" operator="out"/>
<feColorMatrix type="matrix" values="0 0 0 0 0.796078 0 0 0 0 0.980392 0 0 0 0 0.960784 0 0 0 1 0"/>
<feBlend mode="normal" in2="effect2_dropShadow_0_1" result="effect3_dropShadow_0_1"/>
<feColorMatrix in="SourceAlpha" type="matrix" values="0 0 0 0 0 0 0 0 0 0 0 0 0 0 0 0 0 0 127 0" result="hardAlpha"/>
<feOffset/>
<feGaussianBlur stdDeviation="10"/>
<feComposite in2="hardAlpha" operator="out"/>
<feColorMatrix type="matrix" values="0 0 0 0 0.796078 0 0 0 0 0.980392 0 0 0 0 0.960784 0 0 0 1 0"/>
<feBlend mode="normal" in2="effect3_dropShadow_0_1" result="effect4_dropShadow_0_1"/>
<feBlend mode="normal" in="SourceGraphic" in2="effect4_dropShadow_0_1" result="shape"/>
</filter>
<filter id="filter1_dddd_0_1" x="0" y="17.5854" width="97.1523" height="106.041" filterUnits="userSpaceOnUse" color-interpolation-filters="sRGB">
<feFlood flood-opacity="0" result="BackgroundImageFix"/>
<feColorMatrix in="SourceAlpha" type="matrix" values="0 0 0 0 0 0 0 0 0 0 0 0 0 0 0 0 0 0 127 0" result="hardAlpha"/>
<feOffset/>
<feGaussianBlur stdDeviation="10"/>
<feComposite in2="hardAlpha" operator="out"/>
<feColorMatrix type="matrix" values="0 0 0 0 0.796078 0 0 0 0 0.980392 0 0 0 0 0.960784 0 0 0 1 0"/>
<feBlend mode="normal" in2="BackgroundImageFix" result="effect1_dropShadow_0_1"/>
<feColorMatrix in="SourceAlpha" type="matrix" values="0 0 0 0 0 0 0 0 0 0 0 0 0 0 0 0 0 0 127 0" result="hardAlpha"/>
<feOffset/>
<feGaussianBlur stdDeviation="10"/>
<feComposite in2="hardAlpha" operator="out"/>
<feColorMatrix type="matrix" values="0 0 0 0 0.796078 0 0 0 0 0.980392 0 0 0 0 0.960784 0 0 0 1 0"/>
<feBlend mode="normal" in2="effect1_dropShadow_0_1" result="effect2_dropShadow_0_1"/>
<feColorMatrix in="SourceAlpha" type="matrix" values="0 0 0 0 0 0 0 0 0 0 0 0 0 0 0 0 0 0 127 0" result="hardAlpha"/>
<feOffset/>
<feGaussianBlur stdDeviation="10"/>
<feComposite in2="hardAlpha" operator="out"/>
<feColorMatrix type="matrix" values="0 0 0 0 0.796078 0 0 0 0 0.980392 0 0 0 0 0.960784 0 0 0 1 0"/>
<feBlend mode="normal" in2="effect2_dropShadow_0_1" result="effect3_dropShadow_0_1"/>
<feColorMatrix in="SourceAlpha" type="matrix" values="0 0 0 0 0 0 0 0 0 0 0 0 0 0 0 0 0 0 127 0" result="hardAlpha"/>
<feOffset/>
<feGaussianBlur stdDeviation="10"/>
<feComposite in2="hardAlpha" operator="out"/>
<feColorMatrix type="matrix" values="0 0 0 0 0.796078 0 0 0 0 0.980392 0 0 0 0 0.960784 0 0 0 1 0"/>
<feBlend mode="normal" in2="effect3_dropShadow_0_1" result="effect4_dropShadow_0_1"/>
<feBlend mode="normal" in="SourceGraphic" in2="effect4_dropShadow_0_1" result="shape"/>
</filter>
<filter id="filter2_dddd_0_1" x="60.6895" y="0.439453" width="54" height="57" filterUnits="userSpaceOnUse" color-interpolation-filters="sRGB">
<feFlood flood-opacity="0" result="BackgroundImageFix"/>
<feColorMatrix in="SourceAlpha" type="matrix" values="0 0 0 0 0 0 0 0 0 0 0 0 0 0 0 0 0 0 127 0" result="hardAlpha"/>
<feOffset/>
<feGaussianBlur stdDeviation="10"/>
<feComposite in2="hardAlpha" operator="out"/>
<feColorMatrix type="matrix" values="0 0 0 0 0.796078 0 0 0 0 0.980392 0 0 0 0 0.960784 0 0 0 1 0"/>
<feBlend mode="normal" in2="BackgroundImageFix" result="effect1_dropShadow_0_1"/>
<feColorMatrix in="SourceAlpha" type="matrix" values="0 0 0 0 0 0 0 0 0 0 0 0 0 0 0 0 0 0 127 0" result="hardAlpha"/>
<feOffset/>
<feGaussianBlur stdDeviation="10"/>
<feComposite in2="hardAlpha" operator="out"/>
<feColorMatrix type="matrix" values="0 0 0 0 0.796078 0 0 0 0 0.980392 0 0 0 0 0.960784 0 0 0 1 0"/>
<feBlend mode="normal" in2="effect1_dropShadow_0_1" result="effect2_dropShadow_0_1"/>
<feColorMatrix in="SourceAlpha" type="matrix" values="0 0 0 0 0 0 0 0 0 0 0 0 0 0 0 0 0 0 127 0" result="hardAlpha"/>
<feOffset/>
<feGaussianBlur stdDeviation="10"/>
<feComposite in2="hardAlpha" operator="out"/>
<feColorMatrix type="matrix" values="0 0 0 0 0.796078 0 0 0 0 0.980392 0 0 0 0 0.960784 0 0 0 1 0"/>
<feBlend mode="normal" in2="effect2_dropShadow_0_1" result="effect3_dropShadow_0_1"/>
<feColorMatrix in="SourceAlpha" type="matrix" values="0 0 0 0 0 0 0 0 0 0 0 0 0 0 0 0 0 0 127 0" result="hardAlpha"/>
<feOffset/>
<feGaussianBlur stdDeviation="10"/>
<feComposite in2="hardAlpha" operator="out"/>
<feColorMatrix type="matrix" values="0 0 0 0 0.796078 0 0 0 0 0.980392 0 0 0 0 0.960784 0 0 0 1 0"/>
<feBlend mode="normal" in2="effect3_dropShadow_0_1" result="effect4_dropShadow_0_1"/>
<feBlend mode="normal" in="SourceGraphic" in2="effect4_dropShadow_0_1" result="shape"/>
</filter>
<filter id="filter3_dddd_0_1" x="78.625" y="18.7578" width="101.066" height="127.269" filterUnits="userSpaceOnUse" color-interpolation-filters="sRGB">
<feFlood flood-opacity="0" result="BackgroundImageFix"/>
<feColorMatrix in="SourceAlpha" type="matrix" values="0 0 0 0 0 0 0 0 0 0 0 0 0 0 0 0 0 0 127 0" result="hardAlpha"/>
<feOffset/>
<feGaussianBlur stdDeviation="10"/>
<feComposite in2="hardAlpha" operator="out"/>
<feColorMatrix type="matrix" values="0 0 0 0 0.796078 0 0 0 0 0.980392 0 0 0 0 0.960784 0 0 0 1 0"/>
<feBlend mode="normal" in2="BackgroundImageFix" result="effect1_dropShadow_0_1"/>
<feColorMatrix in="SourceAlpha" type="matrix" values="0 0 0 0 0 0 0 0 0 0 0 0 0 0 0 0 0 0 127 0" result="hardAlpha"/>
<feOffset/>
<feGaussianBlur stdDeviation="10"/>
<feComposite in2="hardAlpha" operator="out"/>
<feColorMatrix type="matrix" values="0 0 0 0 0.796078 0 0 0 0 0.980392 0 0 0 0 0.960784 0 0 0 1 0"/>
<feBlend mode="normal" in2="effect1_dropShadow_0_1" result="effect2_dropShadow_0_1"/>
<feColorMatrix in="SourceAlpha" type="matrix" values="0 0 0 0 0 0 0 0 0 0 0 0 0 0 0 0 0 0 127 0" result="hardAlpha"/>
<feOffset/>
<feGaussianBlur stdDeviation="10"/>
<feComposite in2="hardAlpha" operator="out"/>
<feColorMatrix type="matrix" values="0 0 0 0 0.796078 0 0 0 0 0.980392 0 0 0 0 0.960784 0 0 0 1 0"/>
<feBlend mode="normal" in2="effect2_dropShadow_0_1" result="effect3_dropShadow_0_1"/>
<feColorMatrix in="SourceAlpha" type="matrix" values="0 0 0 0 0 0 0 0 0 0 0 0 0 0 0 0 0 0 127 0" result="hardAlpha"/>
<feOffset/>
<feGaussianBlur stdDeviation="10"/>
<feComposite in2="hardAlpha" operator="out"/>
<feColorMatrix type="matrix" values="0 0 0 0 0.796078 0 0 0 0 0.980392 0 0 0 0 0.960784 0 0 0 1 0"/>
<feBlend mode="normal" in2="effect3_dropShadow_0_1" result="effect4_dropShadow_0_1"/>
<feBlend mode="normal" in="SourceGraphic" in2="effect4_dropShadow_0_1" result="shape"/>
</filter>
<filter id="filter4_dddd_0_1" x="145.189" y="17.9106" width="100.5" height="105.615" filterUnits="userSpaceOnUse" color-interpolation-filters="sRGB">
<feFlood flood-opacity="0" result="BackgroundImageFix"/>
<feColorMatrix in="SourceAlpha" type="matrix" values="0 0 0 0 0 0 0 0 0 0 0 0 0 0 0 0 0 0 127 0" result="hardAlpha"/>
<feOffset/>
<feGaussianBlur stdDeviation="10"/>
<feComposite in2="hardAlpha" operator="out"/>
<feColorMatrix type="matrix" values="0 0 0 0 0.796078 0 0 0 0 0.980392 0 0 0 0 0.960784 0 0 0 1 0"/>
<feBlend mode="normal" in2="BackgroundImageFix" result="effect1_dropShadow_0_1"/>
<feColorMatrix in="SourceAlpha" type="matrix" values="0 0 0 0 0 0 0 0 0 0 0 0 0 0 0 0 0 0 127 0" result="hardAlpha"/>
<feOffset/>
<feGaussianBlur stdDeviation="10"/>
<feComposite in2="hardAlpha" operator="out"/>
<feColorMatrix type="matrix" values="0 0 0 0 0.796078 0 0 0 0 0.980392 0 0 0 0 0.960784 0 0 0 1 0"/>
<feBlend mode="normal" in2="effect1_dropShadow_0_1" result="effect2_dropShadow_0_1"/>
<feColorMatrix in="SourceAlpha" type="matrix" values="0 0 0 0 0 0 0 0 0 0 0 0 0 0 0 0 0 0 127 0" result="hardAlpha"/>
<feOffset/>
<feGaussianBlur stdDeviation="10"/>
<feComposite in2="hardAlpha" operator="out"/>
<feColorMatrix type="matrix" values="0 0 0 0 0.796078 0 0 0 0 0.980392 0 0 0 0 0.960784 0 0 0 1 0"/>
<feBlend mode="normal" in2="effect2_dropShadow_0_1" result="effect3_dropShadow_0_1"/>
<feColorMatrix in="SourceAlpha" type="matrix" values="0 0 0 0 0 0 0 0 0 0 0 0 0 0 0 0 0 0 127 0" result="hardAlpha"/>
<feOffset/>
<feGaussianBlur stdDeviation="10"/>
<feComposite in2="hardAlpha" operator="out"/>
<feColorMatrix type="matrix" values="0 0 0 0 0.796078 0 0 0 0 0.980392 0 0 0 0 0.960784 0 0 0 1 0"/>
<feBlend mode="normal" in2="effect3_dropShadow_0_1" result="effect4_dropShadow_0_1"/>
<feBlend mode="normal" in="SourceGraphic" in2="effect4_dropShadow_0_1" result="shape"/>
</filter>
<filter id="filter5_dddd_0_1" x="211.189" y="12.9673" width="107.445" height="119.973" filterUnits="userSpaceOnUse" color-interpolation-filters="sRGB">
<feFlood flood-opacity="0" result="BackgroundImageFix"/>
<feColorMatrix in="SourceAlpha" type="matrix" values="0 0 0 0 0 0 0 0 0 0 0 0 0 0 0 0 0 0 127 0" result="hardAlpha"/>
<feOffset/>
<feGaussianBlur stdDeviation="10"/>
<feComposite in2="hardAlpha" operator="out"/>
<feColorMatrix type="matrix" values="0 0 0 0 0.796078 0 0 0 0 0.980392 0 0 0 0 0.960784 0 0 0 1 0"/>
<feBlend mode="normal" in2="BackgroundImageFix" result="effect1_dropShadow_0_1"/>
<feColorMatrix in="SourceAlpha" type="matrix" values="0 0 0 0 0 0 0 0 0 0 0 0 0 0 0 0 0 0 127 0" result="hardAlpha"/>
<feOffset/>
<feGaussianBlur stdDeviation="10"/>
<feComposite in2="hardAlpha" operator="out"/>
<feColorMatrix type="matrix" values="0 0 0 0 0.796078 0 0 0 0 0.980392 0 0 0 0 0.960784 0 0 0 1 0"/>
<feBlend mode="normal" in2="effect1_dropShadow_0_1" result="effect2_dropShadow_0_1"/>
<feColorMatrix in="SourceAlpha" type="matrix" values="0 0 0 0 0 0 0 0 0 0 0 0 0 0 0 0 0 0 127 0" result="hardAlpha"/>
<feOffset/>
<feGaussianBlur stdDeviation="10"/>
<feComposite in2="hardAlpha" operator="out"/>
<feColorMatrix type="matrix" values="0 0 0 0 0.796078 0 0 0 0 0.980392 0 0 0 0 0.960784 0 0 0 1 0"/>
<feBlend mode="normal" in2="effect2_dropShadow_0_1" result="effect3_dropShadow_0_1"/>
<feColorMatrix in="SourceAlpha" type="matrix" values="0 0 0 0 0 0 0 0 0 0 0 0 0 0 0 0 0 0 127 0" result="hardAlpha"/>
<feOffset/>
<feGaussianBlur stdDeviation="10"/>
<feComposite in2="hardAlpha" operator="out"/>
<feColorMatrix type="matrix" values="0 0 0 0 0.796078 0 0 0 0 0.980392 0 0 0 0 0.960784 0 0 0 1 0"/>
<feBlend mode="normal" in2="effect3_dropShadow_0_1" result="effect4_dropShadow_0_1"/>
<feBlend mode="normal" in="SourceGraphic" in2="effect4_dropShadow_0_1" result="shape"/>
</filter>
<filter id="filter6_dddd_0_1" x="283.189" y="0" width="51" height="123.879" filterUnits="userSpaceOnUse" color-interpolation-filters="sRGB">
<feFlood flood-opacity="0" result="BackgroundImageFix"/>
<feColorMatrix in="SourceAlpha" type="matrix" values="0 0 0 0 0 0 0 0 0 0 0 0 0 0 0 0 0 0 127 0" result="hardAlpha"/>
<feOffset/>
<feGaussianBlur stdDeviation="10"/>
<feComposite in2="hardAlpha" operator="out"/>
<feColorMatrix type="matrix" values="0 0 0 0 0.796078 0 0 0 0 0.980392 0 0 0 0 0.960784 0 0 0 1 0"/>
<feBlend mode="normal" in2="BackgroundImageFix" result="effect1_dropShadow_0_1"/>
<feColorMatrix in="SourceAlpha" type="matrix" values="0 0 0 0 0 0 0 0 0 0 0 0 0 0 0 0 0 0 127 0" result="hardAlpha"/>
<feOffset/>
<feGaussianBlur stdDeviation="10"/>
<feComposite in2="hardAlpha" operator="out"/>
<feColorMatrix type="matrix" values="0 0 0 0 0.796078 0 0 0 0 0.980392 0 0 0 0 0.960784 0 0 0 1 0"/>
<feBlend mode="normal" in2="effect1_dropShadow_0_1" result="effect2_dropShadow_0_1"/>
<feColorMatrix in="SourceAlpha" type="matrix" values="0 0 0 0 0 0 0 0 0 0 0 0 0 0 0 0 0 0 127 0" result="hardAlpha"/>
<feOffset/>
<feGaussianBlur stdDeviation="10"/>
<feComposite in2="hardAlpha" operator="out"/>
<feColorMatrix type="matrix" values="0 0 0 0 0.796078 0 0 0 0 0.980392 0 0 0 0 0.960784 0 0 0 1 0"/>
<feBlend mode="normal" in2="effect2_dropShadow_0_1" result="effect3_dropShadow_0_1"/>
<feColorMatrix in="SourceAlpha" type="matrix" values="0 0 0 0 0 0 0 0 0 0 0 0 0 0 0 0 0 0 127 0" result="hardAlpha"/>
<feOffset/>
<feGaussianBlur stdDeviation="10"/>
<feComposite in2="hardAlpha" operator="out"/>
<feColorMatrix type="matrix" values="0 0 0 0 0.796078 0 0 0 0 0.980392 0 0 0 0 0.960784 0 0 0 1 0"/>
<feBlend mode="normal" in2="effect3_dropShadow_0_1" result="effect4_dropShadow_0_1"/>
<feBlend mode="normal" in="SourceGraphic" in2="effect4_dropShadow_0_1" result="shape"/>
</filter>
</defs>
</svg>
